<svg width="264" height="234" viewBox="0 0 264 234" fill="none" xmlns="http://www.w3.org/2000/svg">
<g filter="url(#filter0_d)">
<rect x="4" width="256" height="226" rx="10" fill="white"/>
<rect x="4.5" y="0.5" width="255" height="225" rx="9.5" stroke="#E4E4E4"/>
</g>
<path d="M133.488 91.776C134.661 92.1813 135.621 92.8533 136.368 93.792C137.136 94.7093 137.52 95.9147 137.52 97.408C137.52 99.776 136.827 101.472 135.44 102.496C134.075 103.499 132.4 104 130.416 104H122.192C121.765 104 121.403 103.851 121.104 103.552C120.805 103.253 120.656 102.891 120.656 102.464V83.136C120.656 82.7093 120.805 82.3467 121.104 82.048C121.403 81.7493 121.765 81.6 122.192 81.6H130.416C132.357 81.6 133.829 82.08 134.832 83.04C135.856 84 136.368 85.3867 136.368 87.2C136.368 88.224 136.123 89.1413 135.632 89.952C135.141 90.7413 134.427 91.3493 133.488 91.776ZM133.072 87.68C133.072 86.6773 132.795 85.92 132.24 85.408C131.707 84.8747 130.949 84.608 129.968 84.608H123.92V90.848H130.032C130.907 90.8267 131.632 90.5493 132.208 90.016C132.784 89.4613 133.072 88.6827 133.072 87.68ZM130.384 101.056C131.557 101.056 132.496 100.757 133.2 100.16C133.904 99.5413 134.256 98.624 134.256 97.408C134.256 95.04 132.912 93.856 130.224 93.856H123.92V101.056H130.384ZM155.867 94.976C155.846 95.36 155.686 95.6907 155.387 95.968C155.088 96.224 154.736 96.352 154.331 96.352H143.067C143.216 97.9093 143.803 99.1573 144.827 100.096C145.872 101.035 147.142 101.504 148.635 101.504C149.659 101.504 150.491 101.355 151.131 101.056C151.771 100.757 152.336 100.373 152.827 99.904C153.147 99.712 153.456 99.616 153.755 99.616C154.118 99.616 154.416 99.744 154.651 100C154.907 100.256 155.035 100.555 155.035 100.896C155.035 101.344 154.822 101.749 154.395 102.112C153.776 102.731 152.955 103.253 151.931 103.68C150.907 104.107 149.862 104.32 148.795 104.32C147.067 104.32 145.542 103.957 144.219 103.232C142.918 102.507 141.904 101.493 141.179 100.192C140.475 98.8907 140.123 97.4187 140.123 95.776C140.123 93.984 140.486 92.416 141.211 91.072C141.958 89.7067 142.928 88.6613 144.123 87.936C145.339 87.2107 146.64 86.848 148.027 86.848C149.392 86.848 150.672 87.2 151.867 87.904C153.062 88.608 154.022 89.5787 154.747 90.816C155.472 92.0533 155.846 93.44 155.867 94.976ZM148.027 89.664C146.832 89.664 145.798 90.0053 144.923 90.688C144.048 91.3493 143.472 92.384 143.195 93.792H152.635V93.536C152.528 92.4053 152.016 91.4773 151.099 90.752C150.203 90.0267 149.179 89.664 148.027 89.664ZM167.941 86.848C171.781 86.848 173.701 89.152 173.701 93.76V102.464C173.701 102.891 173.552 103.253 173.253 103.552C172.976 103.851 172.613 104 172.165 104C171.738 104 171.376 103.851 171.077 103.552C170.8 103.253 170.661 102.891 170.661 102.464V93.792C170.661 92.5333 170.373 91.5307 169.797 90.784C169.221 90.0373 168.282 89.664 166.981 89.664C166.128 89.664 165.349 89.856 164.645 90.24C163.962 90.6027 163.418 91.104 163.013 91.744C162.629 92.3627 162.437 93.0453 162.437 93.792V102.464C162.437 102.891 162.288 103.253 161.989 103.552C161.712 103.851 161.349 104 160.901 104C160.453 104 160.09 103.861 159.813 103.584C159.536 103.285 159.397 102.912 159.397 102.464V88.768C159.397 88.3413 159.536 87.9787 159.813 87.68C160.112 87.3813 160.474 87.232 160.901 87.232C161.349 87.232 161.712 87.3813 161.989 87.68C162.288 87.9787 162.437 88.3413 162.437 88.768V89.888C162.992 89.0347 163.76 88.32 164.741 87.744C165.744 87.1467 166.81 86.848 167.941 86.848ZM182.785 90.208V99.744C182.785 100.811 183.265 101.344 184.225 101.344C184.374 101.344 184.577 101.312 184.833 101.248C185.089 101.163 185.291 101.12 185.441 101.12C185.718 101.12 185.953 101.237 186.145 101.472C186.337 101.707 186.433 102.005 186.433 102.368C186.433 102.816 186.177 103.2 185.665 103.52C185.153 103.84 184.577 104 183.937 104C183.233 104 182.582 103.925 181.985 103.776C181.409 103.627 180.886 103.253 180.417 102.656C179.969 102.037 179.745 101.109 179.745 99.872V90.208H177.889C177.483 90.208 177.142 90.08 176.865 89.824C176.609 89.5467 176.481 89.2053 176.481 88.8C176.481 88.3947 176.609 88.064 176.865 87.808C177.142 87.552 177.483 87.424 177.889 87.424H179.745V84.736C179.745 84.3093 179.883 83.9467 180.161 83.648C180.459 83.3493 180.833 83.2 181.281 83.2C181.707 83.2 182.059 83.3493 182.337 83.648C182.635 83.9467 182.785 84.3093 182.785 84.736V87.424H185.441C185.846 87.424 186.177 87.5627 186.433 87.84C186.71 88.096 186.849 88.4267 186.849 88.832C186.849 89.2373 186.71 89.568 186.433 89.824C186.177 90.08 185.846 90.208 185.441 90.208H182.785ZM206.113 95.616C206.113 97.28 205.739 98.7733 204.993 100.096C204.246 101.419 203.222 102.453 201.921 103.2C200.641 103.947 199.222 104.32 197.665 104.32C196.107 104.32 194.678 103.947 193.377 103.2C192.097 102.453 191.083 101.419 190.337 100.096C189.59 98.7733 189.217 97.28 189.217 95.616C189.217 93.952 189.59 92.448 190.337 91.104C191.083 89.76 192.097 88.7147 193.377 87.968C194.678 87.2213 196.107 86.848 197.665 86.848C199.222 86.848 200.641 87.2213 201.921 87.968C203.222 88.7147 204.246 89.76 204.993 91.104C205.739 92.448 206.113 93.952 206.113 95.616ZM203.073 95.616C203.073 94.464 202.827 93.44 202.337 92.544C201.867 91.6267 201.217 90.9227 200.385 90.432C199.574 89.92 198.667 89.664 197.665 89.664C196.662 89.664 195.745 89.92 194.913 90.432C194.102 90.9227 193.451 91.6267 192.961 92.544C192.491 93.44 192.257 94.464 192.257 95.616C192.257 96.7467 192.491 97.76 192.961 98.656C193.451 99.552 194.102 100.256 194.913 100.768C195.745 101.259 196.662 101.504 197.665 101.504C198.667 101.504 199.574 101.259 200.385 100.768C201.217 100.256 201.867 99.552 202.337 98.656C202.827 97.76 203.073 96.7467 203.073 95.616ZM133.488 121.776C134.661 122.181 135.621 122.853 136.368 123.792C137.136 124.709 137.52 125.915 137.52 127.408C137.52 129.776 136.827 131.472 135.44 132.496C134.075 133.499 132.4 134 130.416 134H122.192C121.765 134 121.403 133.851 121.104 133.552C120.805 133.253 120.656 132.891 120.656 132.464V113.136C120.656 112.709 120.805 112.347 121.104 112.048C121.403 111.749 121.765 111.6 122.192 111.6H130.416C132.357 111.6 133.829 112.08 134.832 113.04C135.856 114 136.368 115.387 136.368 117.2C136.368 118.224 136.123 119.141 135.632 119.952C135.141 120.741 134.427 121.349 133.488 121.776ZM133.072 117.68C133.072 116.677 132.795 115.92 132.24 115.408C131.707 114.875 130.949 114.608 129.968 114.608H123.92V120.848H130.032C130.907 120.827 131.632 120.549 132.208 120.016C132.784 119.461 133.072 118.683 133.072 117.68ZM130.384 131.056C131.557 131.056 132.496 130.757 133.2 130.16C133.904 129.541 134.256 128.624 134.256 127.408C134.256 125.04 132.912 123.856 130.224 123.856H123.92V131.056H130.384ZM144.058 132.464C144.058 132.891 143.909 133.253 143.61 133.552C143.333 133.851 142.97 134 142.522 134C142.096 134 141.733 133.851 141.434 133.552C141.157 133.253 141.018 132.891 141.018 132.464V118.608C141.018 118.181 141.157 117.819 141.434 117.52C141.733 117.221 142.096 117.072 142.522 117.072C142.97 117.072 143.333 117.221 143.61 117.52C143.909 117.819 144.058 118.181 144.058 118.608V132.464ZM142.522 114.96C141.904 114.96 141.456 114.853 141.178 114.64C140.922 114.405 140.794 114.043 140.794 113.552V113.04C140.794 112.528 140.933 112.165 141.21 111.952C141.509 111.739 141.957 111.632 142.554 111.632C143.152 111.632 143.578 111.749 143.834 111.984C144.112 112.197 144.25 112.549 144.25 113.04V113.552C144.25 114.064 144.112 114.427 143.834 114.64C143.557 114.853 143.12 114.96 142.522 114.96ZM156.972 116.848C160.812 116.848 162.732 119.152 162.732 123.76V132.464C162.732 132.891 162.583 133.253 162.284 133.552C162.007 133.851 161.644 134 161.196 134C160.77 134 160.407 133.851 160.108 133.552C159.831 133.253 159.692 132.891 159.692 132.464V123.792C159.692 122.533 159.404 121.531 158.828 120.784C158.252 120.037 157.314 119.664 156.012 119.664C155.159 119.664 154.38 119.856 153.676 120.24C152.994 120.603 152.45 121.104 152.044 121.744C151.66 122.363 151.468 123.045 151.468 123.792V132.464C151.468 132.891 151.319 133.253 151.02 133.552C150.743 133.851 150.38 134 149.932 134C149.484 134 149.122 133.861 148.844 133.584C148.567 133.285 148.428 132.912 148.428 132.464V118.768C148.428 118.341 148.567 117.979 148.844 117.68C149.143 117.381 149.506 117.232 149.932 117.232C150.38 117.232 150.743 117.381 151.02 117.68C151.319 117.979 151.468 118.341 151.468 118.768V119.888C152.023 119.035 152.791 118.32 153.772 117.744C154.775 117.147 155.842 116.848 156.972 116.848Z" fill="black"/>
<path d="M65.8402 161.4C65.9068 161.493 65.9402 161.587 65.9402 161.68C65.9402 161.827 65.8868 161.933 65.7802 162C65.6868 162.067 65.5868 162.1 65.4802 162.1C65.3735 162.1 65.2802 162.053 65.2002 161.96L59.2002 154.54L56.2002 157.32V161.58C56.1868 161.7 56.1402 161.8 56.0602 161.88C55.9802 161.96 55.8868 162 55.7802 162C55.6468 162 55.5402 161.96 55.4602 161.88C55.3935 161.8 55.3602 161.7 55.3602 161.58V148.42C55.3602 148.3 55.4002 148.2 55.4802 148.12C55.5602 148.04 55.6602 148 55.7802 148C55.9002 148 56.0002 148.04 56.0802 148.12C56.1602 148.2 56.2002 148.3 56.2002 148.42V156.3L64.8402 148.2C64.9202 148.12 65.0135 148.08 65.1202 148.08C65.2268 148.08 65.3202 148.12 65.4002 148.2C65.4802 148.28 65.5202 148.373 65.5202 148.48C65.5202 148.587 65.4802 148.68 65.4002 148.76L59.8602 153.92L65.8402 161.4ZM76.5233 159.6C76.6166 159.6 76.6966 159.64 76.7633 159.72C76.8299 159.787 76.8633 159.867 76.8633 159.96C76.8633 160.053 76.8366 160.133 76.7833 160.2C76.3433 160.787 75.7966 161.267 75.1433 161.64C74.4899 162.013 73.7899 162.2 73.0433 162.2C72.0433 162.2 71.1566 161.987 70.3833 161.56C69.6099 161.133 69.0033 160.527 68.5633 159.74C68.1366 158.953 67.9233 158.04 67.9233 157C67.9233 155.933 68.1299 155 68.5433 154.2C68.9699 153.387 69.5299 152.767 70.2233 152.34C70.9166 151.913 71.6566 151.7 72.4433 151.7C73.2299 151.7 73.9566 151.873 74.6233 152.22C75.3033 152.553 75.8566 153.06 76.2833 153.74C76.7099 154.42 76.9366 155.26 76.9633 156.26C76.9633 156.367 76.9233 156.467 76.8433 156.56C76.7633 156.64 76.6699 156.68 76.5633 156.68H68.7033V156.94C68.7033 157.767 68.8699 158.527 69.2033 159.22C69.5366 159.9 70.0299 160.44 70.6833 160.84C71.3366 161.24 72.1233 161.44 73.0433 161.44C73.6833 161.44 74.2833 161.287 74.8433 160.98C75.4166 160.66 75.8633 160.26 76.1833 159.78C76.2766 159.66 76.3899 159.6 76.5233 159.6ZM72.4433 152.5C71.9499 152.5 71.4433 152.633 70.9233 152.9C70.4166 153.153 69.9633 153.54 69.5633 154.06C69.1766 154.567 68.9166 155.187 68.7833 155.92H76.1433V155.74C76.0766 155.06 75.8566 154.48 75.4833 154C75.1233 153.507 74.6699 153.133 74.1233 152.88C73.5899 152.627 73.0299 152.5 72.4433 152.5ZM87.8803 159.6C87.9736 159.6 88.0536 159.64 88.1203 159.72C88.187 159.787 88.2203 159.867 88.2203 159.96C88.2203 160.053 88.1936 160.133 88.1403 160.2C87.7003 160.787 87.1536 161.267 86.5003 161.64C85.847 162.013 85.147 162.2 84.4003 162.2C83.4003 162.2 82.5136 161.987 81.7403 161.56C80.967 161.133 80.3603 160.527 79.9203 159.74C79.4936 158.953 79.2803 158.04 79.2803 157C79.2803 155.933 79.487 155 79.9003 154.2C80.327 153.387 80.887 152.767 81.5803 152.34C82.2736 151.913 83.0136 151.7 83.8003 151.7C84.587 151.7 85.3136 151.873 85.9803 152.22C86.6603 152.553 87.2136 153.06 87.6403 153.74C88.067 154.42 88.2936 155.26 88.3203 156.26C88.3203 156.367 88.2803 156.467 88.2003 156.56C88.1203 156.64 88.027 156.68 87.9203 156.68H80.0603V156.94C80.0603 157.767 80.227 158.527 80.5603 159.22C80.8936 159.9 81.387 160.44 82.0403 160.84C82.6936 161.24 83.4803 161.44 84.4003 161.44C85.0403 161.44 85.6403 161.287 86.2003 160.98C86.7736 160.66 87.2203 160.26 87.5403 159.78C87.6336 159.66 87.747 159.6 87.8803 159.6ZM83.8003 152.5C83.307 152.5 82.8003 152.633 82.2803 152.9C81.7736 153.153 81.3203 153.54 80.9203 154.06C80.5336 154.567 80.2736 155.187 80.1403 155.92H87.5003V155.74C87.4336 155.06 87.2136 154.48 86.8403 154C86.4803 153.507 86.027 153.133 85.4803 152.88C84.947 152.627 84.387 152.5 83.8003 152.5ZM95.9773 151.9C96.8573 151.9 97.6507 152.12 98.3573 152.56C99.064 153 99.6173 153.607 100.017 154.38C100.417 155.153 100.617 156.027 100.617 157C100.617 157.96 100.411 158.833 99.9973 159.62C99.5973 160.393 99.044 161.007 98.3373 161.46C97.6307 161.9 96.844 162.12 95.9773 162.12C95.1773 162.12 94.444 161.92 93.7773 161.52C93.1107 161.12 92.564 160.553 92.1373 159.82V165.6C92.1373 165.707 92.0973 165.8 92.0173 165.88C91.9507 165.96 91.8573 166 91.7373 166C91.6307 166 91.5373 165.96 91.4573 165.88C91.3773 165.8 91.3373 165.707 91.3373 165.6V152.3C91.3373 152.193 91.3707 152.1 91.4373 152.02C91.5173 151.94 91.6173 151.9 91.7373 151.9C91.8573 151.9 91.9507 151.94 92.0173 152.02C92.0973 152.1 92.1373 152.193 92.1373 152.3V154.14C92.5373 153.38 93.0707 152.82 93.7373 152.46C94.404 152.087 95.1507 151.9 95.9773 151.9ZM95.9373 161.36C96.6707 161.36 97.3307 161.173 97.9173 160.8C98.504 160.427 98.964 159.907 99.2973 159.24C99.644 158.573 99.8173 157.827 99.8173 157C99.8173 156.173 99.644 155.433 99.2973 154.78C98.964 154.113 98.504 153.593 97.9173 153.22C97.3307 152.847 96.6707 152.66 95.9373 152.66C95.1907 152.66 94.5173 152.847 93.9173 153.22C93.3307 153.58 92.8707 154.093 92.5373 154.76C92.2173 155.413 92.0573 156.16 92.0573 157C92.0573 157.84 92.2173 158.593 92.5373 159.26C92.8707 159.913 93.3307 160.427 93.9173 160.8C94.5173 161.173 95.1907 161.36 95.9373 161.36ZM122.122 155C122.122 156.4 121.836 157.647 121.262 158.74C120.702 159.833 119.916 160.687 118.902 161.3C117.889 161.9 116.736 162.2 115.442 162.2C114.149 162.2 112.996 161.9 111.982 161.3C110.969 160.687 110.176 159.833 109.602 158.74C109.042 157.647 108.762 156.4 108.762 155C108.762 153.6 109.042 152.353 109.602 151.26C110.176 150.167 110.969 149.32 111.982 148.72C112.996 148.107 114.149 147.8 115.442 147.8C116.736 147.8 117.889 148.107 118.902 148.72C119.916 149.32 120.702 150.167 121.262 151.26C121.836 152.353 122.122 153.6 122.122 155ZM121.282 155C121.282 153.747 121.036 152.633 120.542 151.66C120.049 150.687 119.356 149.933 118.462 149.4C117.582 148.867 116.576 148.6 115.442 148.6C114.309 148.6 113.296 148.867 112.402 149.4C111.522 149.933 110.836 150.687 110.342 151.66C109.849 152.633 109.602 153.747 109.602 155C109.602 156.253 109.849 157.367 110.342 158.34C110.836 159.313 111.522 160.067 112.402 160.6C113.296 161.133 114.309 161.4 115.442 161.4C116.576 161.4 117.582 161.133 118.462 160.6C119.356 160.067 120.049 159.313 120.542 158.34C121.036 157.367 121.282 156.253 121.282 155ZM129.694 151.7C130.307 151.7 130.614 151.853 130.614 152.16C130.614 152.28 130.581 152.38 130.514 152.46C130.447 152.54 130.361 152.58 130.254 152.58C130.214 152.58 130.114 152.553 129.954 152.5C129.807 152.433 129.647 152.4 129.474 152.4C128.927 152.4 128.381 152.62 127.834 153.06C127.287 153.487 126.841 154.033 126.494 154.7C126.147 155.353 125.974 155.987 125.974 156.6V161.6C125.974 161.707 125.934 161.8 125.854 161.88C125.774 161.96 125.681 162 125.574 162C125.454 162 125.354 161.96 125.274 161.88C125.207 161.8 125.174 161.707 125.174 161.6V152.42C125.174 152.313 125.214 152.22 125.294 152.14C125.374 152.06 125.467 152.02 125.574 152.02C125.694 152.02 125.787 152.06 125.854 152.14C125.934 152.22 125.974 152.313 125.974 152.42V154.54C126.281 153.727 126.754 153.053 127.394 152.52C128.047 151.987 128.814 151.713 129.694 151.7ZM141.224 152.02C141.344 152.02 141.438 152.06 141.504 152.14C141.584 152.22 141.624 152.313 141.624 152.42V161.02C141.624 162.033 141.418 162.913 141.004 163.66C140.591 164.407 140.011 164.98 139.264 165.38C138.518 165.793 137.664 166 136.704 166C136.171 166 135.631 165.927 135.084 165.78C134.538 165.647 134.084 165.467 133.724 165.24C133.378 165.027 133.204 164.807 133.204 164.58C133.204 164.473 133.231 164.387 133.284 164.32C133.351 164.253 133.438 164.22 133.544 164.22C133.624 164.22 133.744 164.287 133.904 164.42C134.091 164.607 134.298 164.747 134.524 164.84C135.178 165.107 135.918 165.24 136.744 165.24C137.998 165.24 138.991 164.853 139.724 164.08C140.458 163.307 140.824 162.287 140.824 161.02V159.64C140.464 160.493 139.904 161.133 139.144 161.56C138.398 161.987 137.611 162.2 136.784 162.2C135.878 162.2 135.051 161.973 134.304 161.52C133.571 161.053 132.991 160.42 132.564 159.62C132.151 158.82 131.944 157.927 131.944 156.94C131.944 155.953 132.151 155.06 132.564 154.26C132.991 153.46 133.571 152.833 134.304 152.38C135.051 151.927 135.878 151.7 136.784 151.7C137.678 151.7 138.491 151.94 139.224 152.42C139.971 152.887 140.504 153.453 140.824 154.12V152.42C140.824 152.313 140.858 152.22 140.924 152.14C141.004 152.06 141.104 152.02 141.224 152.02ZM136.824 161.44C137.598 161.44 138.291 161.253 138.904 160.88C139.531 160.493 140.018 159.96 140.364 159.28C140.724 158.6 140.904 157.82 140.904 156.94C140.904 156.06 140.724 155.28 140.364 154.6C140.018 153.92 139.531 153.393 138.904 153.02C138.291 152.647 137.598 152.46 136.824 152.46C136.051 152.46 135.351 152.653 134.724 153.04C134.111 153.427 133.624 153.96 133.264 154.64C132.918 155.32 132.744 156.087 132.744 156.94C132.744 157.793 132.918 158.56 133.264 159.24C133.624 159.92 134.111 160.46 134.724 160.86C135.351 161.247 136.051 161.44 136.824 161.44ZM153.431 152.02C153.551 152.02 153.645 152.06 153.711 152.14C153.791 152.22 153.831 152.313 153.831 152.42V161.6C153.831 161.707 153.791 161.8 153.711 161.88C153.631 161.96 153.538 162 153.431 162C153.311 162 153.211 161.96 153.131 161.88C153.065 161.8 153.031 161.707 153.031 161.6V159.8C152.698 160.48 152.185 161.053 151.491 161.52C150.798 161.973 150.031 162.2 149.191 162.2C148.311 162.2 147.518 161.973 146.811 161.52C146.105 161.053 145.551 160.42 145.151 159.62C144.751 158.807 144.551 157.9 144.551 156.9C144.551 155.913 144.751 155.027 145.151 154.24C145.565 153.44 146.125 152.82 146.831 152.38C147.538 151.927 148.325 151.7 149.191 151.7C150.058 151.7 150.838 151.927 151.531 152.38C152.225 152.833 152.725 153.44 153.031 154.2V152.42C153.031 152.313 153.065 152.22 153.131 152.14C153.211 152.06 153.311 152.02 153.431 152.02ZM149.231 161.44C149.965 161.44 150.625 161.247 151.211 160.86C151.811 160.46 152.278 159.913 152.611 159.22C152.945 158.527 153.111 157.753 153.111 156.9C153.111 156.087 152.945 155.34 152.611 154.66C152.278 153.98 151.811 153.447 151.211 153.06C150.625 152.66 149.965 152.46 149.231 152.46C148.498 152.46 147.831 152.653 147.231 153.04C146.645 153.413 146.185 153.94 145.851 154.62C145.518 155.287 145.351 156.047 145.351 156.9C145.351 157.753 145.518 158.527 145.851 159.22C146.185 159.913 146.645 160.46 147.231 160.86C147.818 161.247 148.485 161.44 149.231 161.44ZM162.086 151.7C163.273 151.7 164.166 152.053 164.766 152.76C165.366 153.453 165.666 154.36 165.666 155.48V161.6C165.666 161.707 165.626 161.8 165.546 161.88C165.466 161.96 165.373 162 165.266 162C165.146 162 165.046 161.96 164.966 161.88C164.899 161.8 164.866 161.707 164.866 161.6V155.56C164.866 154.653 164.626 153.913 164.146 153.34C163.679 152.753 162.966 152.46 162.006 152.46C161.419 152.46 160.839 152.6 160.266 152.88C159.706 153.16 159.246 153.54 158.886 154.02C158.526 154.5 158.346 155.013 158.346 155.56V161.6C158.346 161.707 158.306 161.8 158.226 161.88C158.146 161.96 158.053 162 157.946 162C157.826 162 157.726 161.96 157.646 161.88C157.579 161.8 157.546 161.707 157.546 161.6V152.42C157.546 152.313 157.586 152.22 157.666 152.14C157.746 152.06 157.839 152.02 157.946 152.02C158.066 152.02 158.159 152.06 158.226 152.14C158.306 152.22 158.346 152.313 158.346 152.42V153.76C158.733 153.16 159.273 152.667 159.966 152.28C160.673 151.893 161.379 151.7 162.086 151.7ZM170.191 161.6C170.191 161.707 170.151 161.8 170.071 161.88C169.991 161.96 169.898 162 169.791 162C169.671 162 169.571 161.96 169.491 161.88C169.425 161.8 169.391 161.707 169.391 161.6V152.1C169.391 151.993 169.431 151.9 169.511 151.82C169.591 151.74 169.685 151.7 169.791 151.7C169.911 151.7 170.005 151.74 170.071 151.82C170.151 151.9 170.191 151.993 170.191 152.1V161.6ZM169.791 150.34C169.578 150.34 169.405 150.28 169.271 150.16C169.151 150.04 169.091 149.887 169.091 149.7V149.54C169.091 149.353 169.158 149.2 169.291 149.08C169.425 148.96 169.598 148.9 169.811 148.9C169.998 148.9 170.151 148.96 170.271 149.08C170.405 149.2 170.471 149.353 170.471 149.54V149.7C170.471 149.887 170.405 150.04 170.271 150.16C170.151 150.28 169.991 150.34 169.791 150.34ZM180.792 152.1C180.792 152.193 180.759 152.287 180.692 152.38L174.372 161.24H180.192C180.299 161.24 180.392 161.28 180.472 161.36C180.552 161.44 180.592 161.527 180.592 161.62C180.592 161.727 180.552 161.82 180.472 161.9C180.392 161.967 180.299 162 180.192 162H173.672C173.552 162 173.452 161.953 173.372 161.86C173.292 161.767 173.252 161.68 173.252 161.6C173.252 161.52 173.286 161.433 173.352 161.34L179.672 152.46H174.272C174.166 152.46 174.072 152.427 173.992 152.36C173.912 152.28 173.872 152.187 173.872 152.08C173.872 151.973 173.912 151.887 173.992 151.82C174.072 151.74 174.166 151.7 174.272 151.7H180.392C180.499 151.7 180.586 151.74 180.652 151.82C180.732 151.9 180.779 151.993 180.792 152.1ZM191.548 159.6C191.642 159.6 191.722 159.64 191.788 159.72C191.855 159.787 191.888 159.867 191.888 159.96C191.888 160.053 191.862 160.133 191.808 160.2C191.368 160.787 190.822 161.267 190.168 161.64C189.515 162.013 188.815 162.2 188.068 162.2C187.068 162.2 186.182 161.987 185.408 161.56C184.635 161.133 184.028 160.527 183.588 159.74C183.162 158.953 182.948 158.04 182.948 157C182.948 155.933 183.155 155 183.568 154.2C183.995 153.387 184.555 152.767 185.248 152.34C185.942 151.913 186.682 151.7 187.468 151.7C188.255 151.7 188.982 151.873 189.648 152.22C190.328 152.553 190.882 153.06 191.308 153.74C191.735 154.42 191.962 155.26 191.988 156.26C191.988 156.367 191.948 156.467 191.868 156.56C191.788 156.64 191.695 156.68 191.588 156.68H183.728V156.94C183.728 157.767 183.895 158.527 184.228 159.22C184.562 159.9 185.055 160.44 185.708 160.84C186.362 161.24 187.148 161.44 188.068 161.44C188.708 161.44 189.308 161.287 189.868 160.98C190.442 160.66 190.888 160.26 191.208 159.78C191.302 159.66 191.415 159.6 191.548 159.6ZM187.468 152.5C186.975 152.5 186.468 152.633 185.948 152.9C185.442 153.153 184.988 153.54 184.588 154.06C184.202 154.567 183.942 155.187 183.808 155.92H191.168V155.74C191.102 155.06 190.882 154.48 190.508 154C190.148 153.507 189.695 153.133 189.148 152.88C188.615 152.627 188.055 152.5 187.468 152.5ZM203.185 147.2C203.305 147.2 203.399 147.24 203.465 147.32C203.545 147.4 203.585 147.493 203.585 147.6V161.6C203.585 161.707 203.545 161.8 203.465 161.88C203.385 161.96 203.292 162 203.185 162C203.065 162 202.965 161.96 202.885 161.88C202.819 161.8 202.785 161.707 202.785 161.6V159.7C202.465 160.407 201.959 161 201.265 161.48C200.572 161.96 199.799 162.2 198.945 162.2C198.079 162.2 197.292 161.973 196.585 161.52C195.879 161.053 195.319 160.42 194.905 159.62C194.505 158.82 194.305 157.927 194.305 156.94C194.305 155.953 194.505 155.06 194.905 154.26C195.319 153.46 195.879 152.833 196.585 152.38C197.292 151.927 198.079 151.7 198.945 151.7C199.772 151.7 200.539 151.933 201.245 152.4C201.952 152.867 202.465 153.473 202.785 154.22V147.6C202.785 147.493 202.819 147.4 202.885 147.32C202.965 147.24 203.065 147.2 203.185 147.2ZM198.985 161.44C199.732 161.44 200.399 161.247 200.985 160.86C201.572 160.473 202.032 159.94 202.365 159.26C202.699 158.567 202.865 157.793 202.865 156.94C202.865 156.087 202.699 155.32 202.365 154.64C202.032 153.96 201.565 153.427 200.965 153.04C200.379 152.653 199.719 152.46 198.985 152.46C198.265 152.46 197.605 152.653 197.005 153.04C196.419 153.427 195.952 153.967 195.605 154.66C195.272 155.34 195.105 156.1 195.105 156.94C195.105 157.793 195.272 158.56 195.605 159.24C195.952 159.92 196.419 160.46 197.005 160.86C197.592 161.247 198.252 161.44 198.985 161.44Z" fill="black"/>
<path d="M105.022 82.5687C105.022 82.6597 104.935 82.8357 104.844 82.9867L104.953 82.9877C104.896 83.0587 104.802 83.1277 104.717 83.1977L105.004 83.1987C105.112 83.0607 105.147 82.8157 105.147 82.6737C105.147 82.4197 104.965 82.1697 104.623 81.9287C104.879 82.1367 105.022 82.3507 105.022 82.5687Z" fill="black"/>
<path d="M54.7148 82.9998H54.7968C54.7648 82.9598 54.7378 82.9208 54.7148 82.8818C54.7148 82.9458 54.7148 82.9998 54.7148 82.9998Z" fill="black"/>
<path d="M79.9708 114.367C66.8858 114.367 55.9997 112.102 53.7188 109.113L54.0028 133.517C56.2918 136.851 66.9838 139.373 79.8298 139.373C93.1698 139.373 104.187 136.653 105.884 133.129C105.893 133.143 105.9 133.156 105.909 133.169L106.227 109.109C103.95 112.101 93.0618 114.367 79.9708 114.367Z" fill="black"/>
<path d="M79.9709 112.33C93.1189 112.33 104.043 110.043 106.254 107.033L106.572 83.002C105.44 85.374 93.9019 87.237 79.8319 87.237C66.6359 87.237 55.6649 85.597 53.4199 83.437L53.6939 107.041C55.9199 110.047 66.8359 112.33 79.9709 112.33Z" fill="black"/>
<path d="M54.6152 82.5791C54.6172 82.6821 54.6562 82.7831 54.7152 82.8831C54.7152 82.7631 54.7152 82.6021 54.7152 82.5801L54.6152 82.5791Z" fill="black"/>
<path d="M104.843 82.9873C104.792 83.0703 104.742 83.1493 104.703 83.1983H104.716C104.801 83.1283 104.896 83.0593 104.952 82.9883L104.843 82.9873Z" fill="black"/>
<line x1="71.5" y1="87" x2="71.5" y2="114" stroke="white"/>
<line x1="98.5" y1="112" x2="98.5" y2="138" stroke="white"/>
<path d="M101.734 61.0184C101.771 60.8459 101.761 60.5519 101.731 60.466C101.659 60.26 101.437 60.0556 101.127 59.943C98.342 59.1457 88.3334 61.2301 76.8242 65.2226C63.6475 69.7937 53.5087 74.9536 54.1681 76.8545L54.3093 77.2617" fill="black"/>
<path d="M54.3438 77.0938C56.3349 78.3178 66.8642 76.1629 79.0838 71.9239C90.8518 67.8415 100.252 63.4417 101.55 60.8744L101.548 60.875L101.581 60.9695L101.548 60.875" fill="black"/>
<rect x="70" y="86" width="3" height="27" fill="white"/>
<rect x="96" y="111" width="3" height="27" fill="white"/>
<path d="M52 110C63.4151 115.333 94.5472 115.333 107 110" stroke="white" stroke-width="3"/>
<path d="M105.141 82.193C105.231 82.0417 105.317 81.7605 105.317 81.6695C105.316 81.4515 105.173 81.1859 104.916 80.9786C102.541 79.3192 92.3989 78.0367 80.2169 78.0709C66.27 78.11 55.0044 79.6936 55.01 81.7056L55.0112 82.1366" fill="black"/>
<path d="M55.0977 81.9883C56.5827 83.7931 67.2407 85.1782 80.1746 85.1419C92.6306 85.107 102.95 84.0021 105.013 81.9963L105.011 81.9963L105.011 82.0963L105.011 81.9963" fill="black"/>
<path d="M104.844 83.1969C104.935 83.0459 105.022 82.7649 105.022 82.6739C105.022 82.4559 104.879 82.1899 104.623 81.9819C102.253 80.3159 92.1138 79.0049 79.9318 79.0049C65.9848 79.0049 54.7148 80.5569 54.7148 82.5689V82.9999" fill="black"/>
<path d="M54.8027 82.8516C56.2827 84.6606 66.9367 86.0756 79.8707 86.0756C92.3267 86.0756 102.65 84.9996 104.718 82.9996H104.716V83.0996V82.9996" fill="black"/>
<path d="M53 83C64.2075 87 94.7736 87 107 83" stroke="white" stroke-width="3"/>
<defs>
<filter id="filter0_d" x="0" y="0" width="264" height="234" filterUnits="userSpaceOnUse" color-interpolation-filters="sRGB">
<feFlood flood-opacity="0" result="BackgroundImageFix"/>
<feColorMatrix in="SourceAlpha" type="matrix" values="0 0 0 0 0 0 0 0 0 0 0 0 0 0 0 0 0 0 127 0"/>
<feOffset dy="4"/>
<feGaussianBlur stdDeviation="2"/>
<feColorMatrix type="matrix" values="0 0 0 0 0 0 0 0 0 0 0 0 0 0 0 0 0 0 0.25 0"/>
<feBlend mode="normal" in2="BackgroundImageFix" result="effect1_dropShadow"/>
<feBlend mode="normal" in="SourceGraphic" in2="effect1_dropShadow" result="shape"/>
</filter>
</defs>
</svg>
