<svg width="264" height="234" viewBox="0 0 264 234" fill="none" xmlns="http://www.w3.org/2000/svg">
<g filter="url(#filter0_d)">
<rect x="4" width="256" height="226" rx="10" fill="white"/>
<rect x="4.5" y="0.5" width="255" height="225" rx="9.5" stroke="#E4E4E4"/>
</g>
<circle cx="132" cy="99" r="40" fill="black"/>
<rect x="92" y="39" width="10" height="67" rx="5" fill="black"/>
<line x1="132" y1="98.5" x2="152" y2="98.5" stroke="black"/>
<path fill-rule="evenodd" clip-rule="evenodd" d="M171.889 103C170.355 123.69 153.082 140 132 140C110.918 140 93.6449 123.69 92.1108 103C92.0374 103.99 92 104.991 92 106C92 128.091 109.909 146 132 146C154.091 146 172 128.091 172 106C172 104.991 171.963 103.99 171.889 103Z" fill="black"/>
<circle cx="132.5" cy="98.5" r="32.5" fill="#E5E5E5"/>
<path fill-rule="evenodd" clip-rule="evenodd" d="M100 99C100 116.673 114.551 131 132.5 131C150.449 131 165 116.673 165 99H100Z" fill="white"/>
<line x1="132.5" y1="66" x2="132.5" y2="133" stroke="black"/>
<line x1="132" y1="98.5" x2="169" y2="98.5" stroke="black"/>
<path d="M73.42 160.92C73.42 163.728 71.956 165.6 69.028 166.536C70.828 166.992 72.28 167.772 73.384 168.876C74.512 169.956 75.076 171.348 75.076 173.052C75.076 175.26 74.116 177.024 72.196 178.344C70.3 179.664 67.732 180.324 64.492 180.324C61.252 180.324 58.936 179.916 57.544 179.1C56.176 178.284 55.492 177.072 55.492 175.464L55.528 157.176C55.528 156.288 55.348 155.616 54.988 155.16C57.412 154.32 60.232 153.9 63.448 153.9C66.664 153.9 69.124 154.548 70.828 155.844C72.556 157.14 73.42 158.832 73.42 160.92ZM64.204 165.78C66.1 165.78 67.564 165.36 68.596 164.52C69.652 163.656 70.18 162.492 70.18 161.028C70.18 159.564 69.616 158.4 68.488 157.536C67.36 156.648 65.8 156.204 63.808 156.204C61.816 156.204 60.088 156.396 58.624 156.78L58.552 165.78H64.06C64.108 165.78 64.156 165.78 64.204 165.78ZM64.204 178.056C66.676 178.056 68.56 177.612 69.856 176.724C71.176 175.836 71.836 174.624 71.836 173.088C71.836 171.528 71.176 170.292 69.856 169.38C68.536 168.468 66.64 168.012 64.168 168.012H58.552L58.516 175.428C58.516 177.18 60.412 178.056 64.204 178.056ZM88.8376 168.912C89.8216 168.84 90.3136 168.276 90.3136 167.22C90.3136 166.14 90.0016 165.252 89.3776 164.556C88.7776 163.836 87.9256 163.476 86.8216 163.476C85.7176 163.476 84.7096 164.004 83.7976 165.06C82.8856 166.116 82.3216 167.58 82.1056 169.452L88.8376 168.912ZM82.0336 171C82.0336 173.352 82.5376 175.092 83.5456 176.22C84.5776 177.348 86.0416 177.912 87.9376 177.912C89.8336 177.912 91.4056 177.288 92.6536 176.04C93.0136 176.232 93.1936 176.556 93.1936 177.012C93.1936 177.804 92.6176 178.56 91.4656 179.28C90.3136 179.976 88.9456 180.324 87.3616 180.324C84.8896 180.324 82.8616 179.544 81.2776 177.984C79.6936 176.424 78.9016 174.24 78.9016 171.432C78.9016 168.6 79.7536 166.224 81.4576 164.304C83.1856 162.36 85.1656 161.388 87.3976 161.388C89.1736 161.388 90.6136 162 91.7176 163.224C92.8456 164.448 93.4096 165.84 93.4096 167.4C93.4096 168.528 93.0976 169.368 92.4736 169.92C91.8736 170.448 90.8896 170.736 89.5216 170.784L82.0336 171ZM112.931 167.58V177.768C112.931 178.44 113.243 178.908 113.867 179.172C113.363 179.94 112.727 180.324 111.959 180.324C110.639 180.324 109.979 179.484 109.979 177.804V167.796C109.979 165.276 108.875 164.016 106.667 164.016C105.467 164.016 104.327 164.496 103.247 165.456C102.167 166.416 101.423 167.7 101.015 169.308V177.768C101.015 178.464 101.315 178.932 101.915 179.172C101.411 179.94 100.787 180.324 100.043 180.324C98.6988 180.324 98.0268 179.484 98.0268 177.804V163.98C98.0268 163.284 97.7268 162.804 97.1268 162.54C97.5828 161.772 98.2068 161.388 98.9988 161.388C100.343 161.388 101.015 162.228 101.015 163.908V165.78C101.639 164.484 102.527 163.428 103.679 162.612C104.831 161.796 106.175 161.388 107.711 161.388C109.271 161.388 110.531 161.916 111.491 162.972C112.451 164.004 112.931 165.54 112.931 167.58ZM122.426 164.016V175.428C122.426 176.316 122.594 176.952 122.93 177.336C123.29 177.72 123.866 177.912 124.658 177.912C126.146 177.912 127.55 177.276 128.87 176.004C129.278 176.22 129.482 176.568 129.482 177.048C129.482 177.864 128.954 178.62 127.898 179.316C126.842 179.988 125.546 180.324 124.01 180.324C120.938 180.324 119.402 178.728 119.402 175.536V164.016C117.458 163.944 116.486 163.476 116.486 162.612C116.486 162.156 116.63 161.808 116.918 161.568C117.758 161.688 118.406 161.748 118.862 161.748H119.402V158.832C119.402 158.16 119.102 157.68 118.502 157.392C118.982 156.648 119.606 156.276 120.374 156.276C121.742 156.276 122.426 157.116 122.426 158.796V161.748H128.474C128.57 161.916 128.618 162.12 128.618 162.36C128.618 163.464 126.722 164.016 122.93 164.016H122.426ZM144.618 165.348C143.538 164.076 142.17 163.44 140.514 163.44C138.858 163.44 137.574 164.016 136.662 165.168C135.75 166.296 135.294 167.964 135.294 170.172C135.294 173.028 135.846 175.104 136.95 176.4C138.078 177.672 139.47 178.308 141.126 178.308C142.782 178.308 144.054 177.732 144.942 176.58C145.83 175.428 146.274 173.748 146.274 171.54C146.274 168.66 145.722 166.596 144.618 165.348ZM134.718 163.872C136.398 162.216 138.426 161.388 140.802 161.388C143.178 161.388 145.194 162.228 146.85 163.908C148.53 165.564 149.37 167.892 149.37 170.892C149.37 173.868 148.53 176.184 146.85 177.84C145.194 179.496 143.178 180.324 140.802 180.324C138.426 180.324 136.398 179.496 134.718 177.84C133.062 176.184 132.234 173.856 132.234 170.856C132.234 167.856 133.062 165.528 134.718 163.872ZM172.525 160.92C172.525 163.728 171.061 165.6 168.133 166.536C169.933 166.992 171.385 167.772 172.489 168.876C173.617 169.956 174.181 171.348 174.181 173.052C174.181 175.26 173.221 177.024 171.301 178.344C169.405 179.664 166.837 180.324 163.597 180.324C160.357 180.324 158.041 179.916 156.649 179.1C155.281 178.284 154.597 177.072 154.597 175.464L154.633 157.176C154.633 156.288 154.453 155.616 154.093 155.16C156.517 154.32 159.337 153.9 162.553 153.9C165.769 153.9 168.229 154.548 169.933 155.844C171.661 157.14 172.525 158.832 172.525 160.92ZM163.309 165.78C165.205 165.78 166.669 165.36 167.701 164.52C168.757 163.656 169.285 162.492 169.285 161.028C169.285 159.564 168.721 158.4 167.593 157.536C166.465 156.648 164.905 156.204 162.913 156.204C160.921 156.204 159.193 156.396 157.729 156.78L157.657 165.78H163.165C163.213 165.78 163.261 165.78 163.309 165.78ZM163.309 178.056C165.781 178.056 167.665 177.612 168.961 176.724C170.281 175.836 170.941 174.624 170.941 173.088C170.941 171.528 170.281 170.292 168.961 169.38C167.641 168.468 165.745 168.012 163.273 168.012H157.657L157.621 175.428C157.621 177.18 159.517 178.056 163.309 178.056ZM181.103 153.72C181.727 153.72 182.231 153.9 182.615 154.26C183.023 154.596 183.227 155.076 183.227 155.7C183.227 156.3 182.963 156.852 182.435 157.356C181.931 157.836 181.355 158.076 180.707 158.076C180.059 158.076 179.531 157.884 179.123 157.5C178.715 157.116 178.511 156.612 178.511 155.988C178.511 155.364 178.787 154.836 179.339 154.404C179.915 153.948 180.503 153.72 181.103 153.72ZM182.507 163.908V177.768C182.507 178.464 182.807 178.932 183.407 179.172C182.903 179.94 182.279 180.324 181.535 180.324C180.191 180.324 179.519 179.484 179.519 177.804V163.98C179.519 163.284 179.219 162.804 178.619 162.54C179.075 161.772 179.699 161.388 180.491 161.388C181.835 161.388 182.507 162.228 182.507 163.908ZM203.95 167.58V177.768C203.95 178.44 204.262 178.908 204.886 179.172C204.382 179.94 203.746 180.324 202.978 180.324C201.658 180.324 200.998 179.484 200.998 177.804V167.796C200.998 165.276 199.894 164.016 197.686 164.016C196.486 164.016 195.346 164.496 194.266 165.456C193.186 166.416 192.442 167.7 192.034 169.308V177.768C192.034 178.464 192.334 178.932 192.934 179.172C192.43 179.94 191.806 180.324 191.062 180.324C189.718 180.324 189.046 179.484 189.046 177.804V163.98C189.046 163.284 188.746 162.804 188.146 162.54C188.602 161.772 189.226 161.388 190.018 161.388C191.362 161.388 192.034 162.228 192.034 163.908V165.78C192.658 164.484 193.546 163.428 194.698 162.612C195.85 161.796 197.194 161.388 198.73 161.388C200.29 161.388 201.55 161.916 202.51 162.972C203.47 164.004 203.95 165.54 203.95 167.58Z" fill="black"/>
<defs>
<filter id="filter0_d" x="0" y="0" width="264" height="234" filterUnits="userSpaceOnUse" color-interpolation-filters="sRGB">
<feFlood flood-opacity="0" result="BackgroundImageFix"/>
<feColorMatrix in="SourceAlpha" type="matrix" values="0 0 0 0 0 0 0 0 0 0 0 0 0 0 0 0 0 0 127 0"/>
<feOffset dy="4"/>
<feGaussianBlur stdDeviation="2"/>
<feColorMatrix type="matrix" values="0 0 0 0 0 0 0 0 0 0 0 0 0 0 0 0 0 0 0.25 0"/>
<feBlend mode="normal" in2="BackgroundImageFix" result="effect1_dropShadow"/>
<feBlend mode="normal" in="SourceGraphic" in2="effect1_dropShadow" result="shape"/>
</filter>
</defs>
</svg>
