<svg width="264" height="234" viewBox="0 0 264 234" fill="none" xmlns="http://www.w3.org/2000/svg">
<g filter="url(#filter0_d)">
<rect x="4" width="256" height="226" rx="10" fill="white"/>
<rect x="4.5" y="0.5" width="255" height="225" rx="9.5" stroke="#E4E4E4"/>
</g>
<path d="M72.8653 143.92C72.8653 146.728 71.4013 148.6 68.4733 149.536C70.2733 149.992 71.7253 150.772 72.8293 151.876C73.9573 152.956 74.5213 154.348 74.5213 156.052C74.5213 158.26 73.5613 160.024 71.6413 161.344C69.7453 162.664 67.1773 163.324 63.9373 163.324C60.6973 163.324 58.3813 162.916 56.9893 162.1C55.6213 161.284 54.9373 160.072 54.9373 158.464L54.9733 140.176C54.9733 139.288 54.7933 138.616 54.4333 138.16C56.8573 137.32 59.6773 136.9 62.8933 136.9C66.1093 136.9 68.5693 137.548 70.2733 138.844C72.0013 140.14 72.8653 141.832 72.8653 143.92ZM63.6493 148.78C65.5453 148.78 67.0093 148.36 68.0413 147.52C69.0973 146.656 69.6253 145.492 69.6253 144.028C69.6253 142.564 69.0613 141.4 67.9333 140.536C66.8053 139.648 65.2453 139.204 63.2533 139.204C61.2613 139.204 59.5333 139.396 58.0693 139.78L57.9973 148.78H63.5053C63.5533 148.78 63.6013 148.78 63.6493 148.78ZM63.6493 161.056C66.1213 161.056 68.0053 160.612 69.3013 159.724C70.6213 158.836 71.2813 157.624 71.2813 156.088C71.2813 154.528 70.6213 153.292 69.3013 152.38C67.9813 151.468 66.0853 151.012 63.6133 151.012H57.9973L57.9613 158.428C57.9613 160.18 59.8573 161.056 63.6493 161.056ZM88.2829 151.912C89.2669 151.84 89.7589 151.276 89.7589 150.22C89.7589 149.14 89.4469 148.252 88.8229 147.556C88.2229 146.836 87.3709 146.476 86.2669 146.476C85.1629 146.476 84.1549 147.004 83.2429 148.06C82.3309 149.116 81.7669 150.58 81.5509 152.452L88.2829 151.912ZM81.4789 154C81.4789 156.352 81.9829 158.092 82.9909 159.22C84.0229 160.348 85.4869 160.912 87.3829 160.912C89.2789 160.912 90.8509 160.288 92.0989 159.04C92.4589 159.232 92.6389 159.556 92.6389 160.012C92.6389 160.804 92.0629 161.56 90.9109 162.28C89.7589 162.976 88.3909 163.324 86.8069 163.324C84.3349 163.324 82.3069 162.544 80.7229 160.984C79.1389 159.424 78.3469 157.24 78.3469 154.432C78.3469 151.6 79.1989 149.224 80.9029 147.304C82.6309 145.36 84.6109 144.388 86.8429 144.388C88.6189 144.388 90.0589 145 91.1629 146.224C92.2909 147.448 92.8549 148.84 92.8549 150.4C92.8549 151.528 92.5429 152.368 91.9189 152.92C91.3189 153.448 90.3349 153.736 88.9669 153.784L81.4789 154ZM112.376 150.58V160.768C112.376 161.44 112.688 161.908 113.312 162.172C112.808 162.94 112.172 163.324 111.404 163.324C110.084 163.324 109.424 162.484 109.424 160.804V150.796C109.424 148.276 108.32 147.016 106.112 147.016C104.912 147.016 103.772 147.496 102.692 148.456C101.612 149.416 100.868 150.7 100.46 152.308V160.768C100.46 161.464 100.76 161.932 101.36 162.172C100.856 162.94 100.232 163.324 99.4882 163.324C98.1442 163.324 97.4722 162.484 97.4722 160.804V146.98C97.4722 146.284 97.1722 145.804 96.5722 145.54C97.0282 144.772 97.6522 144.388 98.4442 144.388C99.7882 144.388 100.46 145.228 100.46 146.908V148.78C101.084 147.484 101.972 146.428 103.124 145.612C104.276 144.796 105.62 144.388 107.156 144.388C108.716 144.388 109.976 144.916 110.936 145.972C111.896 147.004 112.376 148.54 112.376 150.58ZM121.871 147.016V158.428C121.871 159.316 122.039 159.952 122.375 160.336C122.735 160.72 123.311 160.912 124.103 160.912C125.591 160.912 126.995 160.276 128.315 159.004C128.723 159.22 128.927 159.568 128.927 160.048C128.927 160.864 128.399 161.62 127.343 162.316C126.287 162.988 124.991 163.324 123.455 163.324C120.383 163.324 118.847 161.728 118.847 158.536V147.016C116.903 146.944 115.931 146.476 115.931 145.612C115.931 145.156 116.075 144.808 116.363 144.568C117.203 144.688 117.851 144.748 118.307 144.748H118.847V141.832C118.847 141.16 118.547 140.68 117.947 140.392C118.427 139.648 119.051 139.276 119.819 139.276C121.187 139.276 121.871 140.116 121.871 141.796V144.748H127.919C128.015 144.916 128.063 145.12 128.063 145.36C128.063 146.464 126.167 147.016 122.375 147.016H121.871ZM144.063 148.348C142.983 147.076 141.615 146.44 139.959 146.44C138.303 146.44 137.019 147.016 136.107 148.168C135.195 149.296 134.739 150.964 134.739 153.172C134.739 156.028 135.291 158.104 136.395 159.4C137.523 160.672 138.915 161.308 140.571 161.308C142.227 161.308 143.499 160.732 144.387 159.58C145.275 158.428 145.719 156.748 145.719 154.54C145.719 151.66 145.167 149.596 144.063 148.348ZM134.163 146.872C135.843 145.216 137.871 144.388 140.247 144.388C142.623 144.388 144.639 145.228 146.295 146.908C147.975 148.564 148.815 150.892 148.815 153.892C148.815 156.868 147.975 159.184 146.295 160.84C144.639 162.496 142.623 163.324 140.247 163.324C137.871 163.324 135.843 162.496 134.163 160.84C132.507 159.184 131.679 156.856 131.679 153.856C131.679 150.856 132.507 148.528 134.163 146.872ZM171.971 143.92C171.971 146.728 170.507 148.6 167.579 149.536C169.379 149.992 170.831 150.772 171.935 151.876C173.063 152.956 173.627 154.348 173.627 156.052C173.627 158.26 172.667 160.024 170.747 161.344C168.851 162.664 166.283 163.324 163.043 163.324C159.803 163.324 157.487 162.916 156.095 162.1C154.727 161.284 154.043 160.072 154.043 158.464L154.079 140.176C154.079 139.288 153.899 138.616 153.539 138.16C155.963 137.32 158.783 136.9 161.999 136.9C165.215 136.9 167.675 137.548 169.379 138.844C171.107 140.14 171.971 141.832 171.971 143.92ZM162.755 148.78C164.651 148.78 166.115 148.36 167.147 147.52C168.203 146.656 168.731 145.492 168.731 144.028C168.731 142.564 168.167 141.4 167.039 140.536C165.911 139.648 164.351 139.204 162.359 139.204C160.367 139.204 158.639 139.396 157.175 139.78L157.103 148.78H162.611C162.659 148.78 162.707 148.78 162.755 148.78ZM162.755 161.056C165.227 161.056 167.111 160.612 168.407 159.724C169.727 158.836 170.387 157.624 170.387 156.088C170.387 154.528 169.727 153.292 168.407 152.38C167.087 151.468 165.191 151.012 162.719 151.012H157.103L157.067 158.428C157.067 160.18 158.963 161.056 162.755 161.056ZM180.548 136.72C181.172 136.72 181.676 136.9 182.06 137.26C182.468 137.596 182.672 138.076 182.672 138.7C182.672 139.3 182.408 139.852 181.88 140.356C181.376 140.836 180.8 141.076 180.152 141.076C179.504 141.076 178.976 140.884 178.568 140.5C178.16 140.116 177.956 139.612 177.956 138.988C177.956 138.364 178.232 137.836 178.784 137.404C179.36 136.948 179.948 136.72 180.548 136.72ZM181.952 146.908V160.768C181.952 161.464 182.252 161.932 182.852 162.172C182.348 162.94 181.724 163.324 180.98 163.324C179.636 163.324 178.964 162.484 178.964 160.804V146.98C178.964 146.284 178.664 145.804 178.064 145.54C178.52 144.772 179.144 144.388 179.936 144.388C181.28 144.388 181.952 145.228 181.952 146.908ZM203.396 150.58V160.768C203.396 161.44 203.708 161.908 204.332 162.172C203.828 162.94 203.192 163.324 202.424 163.324C201.104 163.324 200.444 162.484 200.444 160.804V150.796C200.444 148.276 199.34 147.016 197.132 147.016C195.932 147.016 194.792 147.496 193.712 148.456C192.632 149.416 191.888 150.7 191.48 152.308V160.768C191.48 161.464 191.78 161.932 192.38 162.172C191.876 162.94 191.252 163.324 190.508 163.324C189.164 163.324 188.492 162.484 188.492 160.804V146.98C188.492 146.284 188.192 145.804 187.592 145.54C188.048 144.772 188.672 144.388 189.464 144.388C190.808 144.388 191.48 145.228 191.48 146.908V148.78C192.104 147.484 192.992 146.428 194.144 145.612C195.296 144.796 196.64 144.388 198.176 144.388C199.736 144.388 200.996 144.916 201.956 145.972C202.916 147.004 203.396 148.54 203.396 150.58Z" fill="black"/>
<path d="M65.0363 202.168C64.7143 202.168 64.3993 202.063 64.0913 201.853C63.7973 201.643 63.3563 201.237 62.7683 200.635L57.4343 195.154V200.698C57.4343 201.09 57.6023 201.363 57.9383 201.517C57.6583 201.965 57.2873 202.189 56.8253 202.189C56.0553 202.189 55.6703 201.699 55.6703 200.719V188.245C55.6703 187.853 55.4953 187.58 55.1453 187.426C55.3973 186.992 55.7613 186.775 56.2373 186.775C57.0353 186.775 57.4343 187.258 57.4343 188.224V193.852L62.9783 187.972C63.4263 187.51 63.7833 187.195 64.0493 187.027C64.3153 186.859 64.5953 186.775 64.8893 186.775C65.1973 186.775 65.4493 186.873 65.6453 187.069C65.8553 187.265 66.0093 187.496 66.1073 187.762C65.6593 187.916 65.1343 188.28 64.5323 188.854L59.0303 194.314L64.9103 200.299C65.3583 200.789 65.8413 201.09 66.3593 201.202C66.0653 201.846 65.6453 202.168 65.0993 202.168C65.0713 202.168 65.0503 202.168 65.0363 202.168ZM73.9944 195.532C74.5684 195.49 74.8554 195.161 74.8554 194.545C74.8554 193.915 74.6734 193.397 74.3094 192.991C73.9594 192.571 73.4624 192.361 72.8184 192.361C72.1744 192.361 71.5864 192.669 71.0544 193.285C70.5224 193.901 70.1934 194.755 70.0674 195.847L73.9944 195.532ZM70.0254 196.75C70.0254 198.122 70.3194 199.137 70.9074 199.795C71.5094 200.453 72.3634 200.782 73.4694 200.782C74.5754 200.782 75.4924 200.418 76.2204 199.69C76.4304 199.802 76.5354 199.991 76.5354 200.257C76.5354 200.719 76.1994 201.16 75.5274 201.58C74.8554 201.986 74.0574 202.189 73.1334 202.189C71.6914 202.189 70.5084 201.734 69.5844 200.824C68.6604 199.914 68.1984 198.64 68.1984 197.002C68.1984 195.35 68.6954 193.964 69.6894 192.844C70.6974 191.71 71.8524 191.143 73.1544 191.143C74.1904 191.143 75.0304 191.5 75.6744 192.214C76.3324 192.928 76.6614 193.74 76.6614 194.65C76.6614 195.308 76.4794 195.798 76.1154 196.12C75.7654 196.428 75.1914 196.596 74.3934 196.624L70.0254 196.75ZM84.2689 195.532C84.8429 195.49 85.1299 195.161 85.1299 194.545C85.1299 193.915 84.9479 193.397 84.5839 192.991C84.2339 192.571 83.7369 192.361 83.0929 192.361C82.4489 192.361 81.8609 192.669 81.3289 193.285C80.7969 193.901 80.4679 194.755 80.3419 195.847L84.2689 195.532ZM80.2999 196.75C80.2999 198.122 80.5939 199.137 81.1819 199.795C81.7839 200.453 82.6379 200.782 83.7439 200.782C84.8499 200.782 85.7669 200.418 86.4949 199.69C86.7049 199.802 86.8099 199.991 86.8099 200.257C86.8099 200.719 86.4739 201.16 85.8019 201.58C85.1299 201.986 84.3319 202.189 83.4079 202.189C81.9659 202.189 80.7829 201.734 79.8589 200.824C78.9349 199.914 78.4729 198.64 78.4729 197.002C78.4729 195.35 78.9699 193.964 79.9639 192.844C80.9719 191.71 82.1269 191.143 83.4289 191.143C84.4649 191.143 85.3049 191.5 85.9489 192.214C86.6069 192.928 86.9359 193.74 86.9359 194.65C86.9359 195.308 86.7539 195.798 86.3899 196.12C86.0399 196.428 85.4659 196.596 84.6679 196.624L80.2999 196.75ZM94.1023 200.761C94.9563 200.761 95.6773 200.397 96.2653 199.669C96.8673 198.927 97.1683 197.926 97.1683 196.666C97.1683 195.406 96.8673 194.412 96.2653 193.684C95.6773 192.956 94.9563 192.592 94.1023 192.592C92.8983 192.592 91.9883 193.166 91.3723 194.314V199.312C91.7223 199.844 92.1143 200.222 92.5483 200.446C92.9823 200.656 93.5003 200.761 94.1023 200.761ZM91.3723 192.613V192.634C92.1003 191.64 93.0943 191.143 94.3543 191.143C95.6283 191.143 96.7133 191.626 97.6093 192.592C98.5193 193.544 98.9743 194.895 98.9743 196.645C98.9743 198.395 98.4983 199.753 97.5463 200.719C96.6083 201.685 95.5233 202.168 94.2913 202.168C93.0733 202.168 92.1003 201.762 91.3723 200.95V205.717C91.3723 206.137 91.5473 206.41 91.8973 206.536C91.6033 206.984 91.2393 207.208 90.8053 207.208C90.0213 207.208 89.6293 206.711 89.6293 205.717V192.655C89.6293 192.249 89.4543 191.969 89.1043 191.815C89.3703 191.367 89.7343 191.143 90.1963 191.143C90.9803 191.143 91.3723 191.633 91.3723 192.613ZM110.598 199.312C111.55 200.362 112.726 200.887 114.126 200.887C115.526 200.887 116.639 200.264 117.465 199.018C118.165 197.982 118.515 196.68 118.515 195.112C118.515 194.804 118.501 194.482 118.473 194.146C118.333 192.186 117.78 190.681 116.814 189.631C115.848 188.567 114.658 188.035 113.244 188.035C111.844 188.035 110.731 188.665 109.905 189.925C109.219 190.961 108.876 192.242 108.876 193.768C108.876 196.204 109.45 198.052 110.598 199.312ZM113.706 186.775C115.694 186.775 117.276 187.468 118.452 188.854C119.642 190.226 120.237 192.088 120.237 194.44C120.237 196.792 119.642 198.675 118.452 200.089C117.276 201.489 115.694 202.189 113.706 202.189C111.718 202.189 110.122 201.489 108.918 200.089C107.728 198.689 107.133 196.82 107.133 194.482C107.133 192.144 107.728 190.275 108.918 188.875C110.122 187.475 111.718 186.775 113.706 186.775ZM125.415 192.613V193.39C126.003 191.892 126.976 191.143 128.334 191.143C128.992 191.143 129.503 191.311 129.867 191.647C130.231 191.983 130.413 192.375 130.413 192.823C130.413 193.257 130.301 193.593 130.077 193.831C129.853 194.055 129.622 194.167 129.384 194.167C129.146 194.167 128.929 194.139 128.733 194.083C128.761 193.943 128.775 193.761 128.775 193.537C128.775 192.837 128.425 192.487 127.725 192.487C127.263 192.487 126.808 192.718 126.36 193.18C125.912 193.642 125.597 194.349 125.415 195.301V200.698C125.415 201.104 125.59 201.377 125.94 201.517C125.646 201.965 125.282 202.189 124.848 202.189C124.064 202.189 123.672 201.699 123.672 200.719V192.655C123.672 192.249 123.497 191.969 123.147 191.815C123.413 191.367 123.777 191.143 124.239 191.143C125.023 191.143 125.415 191.633 125.415 192.613ZM134.569 197.674C135.045 198.234 135.612 198.514 136.27 198.514C136.928 198.514 137.46 198.248 137.866 197.716C138.272 197.17 138.475 196.484 138.475 195.658C138.475 194.538 138.216 193.677 137.698 193.075C137.18 192.459 136.592 192.151 135.934 192.151C135.29 192.151 134.765 192.417 134.359 192.949C133.953 193.481 133.75 194.125 133.75 194.881C133.75 195.021 133.757 195.168 133.771 195.322C133.841 196.316 134.107 197.1 134.569 197.674ZM138.202 202.672H135.514C134.52 202.672 133.715 202.497 133.099 202.147C132.483 201.811 132.175 201.251 132.175 200.467C132.175 199.669 132.651 199.074 133.603 198.682C132.539 197.898 132.007 196.827 132.007 195.469C132.007 194.111 132.42 193.054 133.246 192.298C134.072 191.528 135.031 191.143 136.123 191.143C136.879 191.143 137.572 191.332 138.202 191.71C138.286 191.038 138.538 190.492 138.958 190.072C139.392 189.652 139.84 189.442 140.302 189.442C140.778 189.442 141.142 189.554 141.394 189.778C141.66 190.002 141.793 190.303 141.793 190.681C141.793 191.045 141.646 191.311 141.352 191.479C141.044 191.241 140.715 191.122 140.365 191.122C140.015 191.122 139.714 191.234 139.462 191.458C139.224 191.668 139.07 191.948 139 192.298C139.826 193.096 140.239 194.118 140.239 195.364C140.239 196.61 139.826 197.611 139 198.367C138.174 199.123 137.215 199.501 136.123 199.501C135.577 199.501 135.08 199.41 134.632 199.228C134.016 199.382 133.708 199.683 133.708 200.131C133.708 200.467 133.862 200.705 134.17 200.845C134.492 200.985 135.003 201.055 135.703 201.055H138.118C139.14 201.055 139.917 201.279 140.449 201.727C140.995 202.175 141.268 202.791 141.268 203.575C141.268 204.611 140.757 205.472 139.735 206.158C138.713 206.844 137.474 207.187 136.018 207.187C134.562 207.187 133.414 206.914 132.574 206.368C131.734 205.822 131.307 205.164 131.293 204.394C131.293 203.988 131.405 203.659 131.629 203.407C131.867 203.155 132.161 202.994 132.511 202.924C132.595 204.786 133.869 205.717 136.333 205.717C137.453 205.717 138.321 205.535 138.937 205.171C139.567 204.821 139.882 204.352 139.882 203.764C139.882 203.036 139.322 202.672 138.202 202.672ZM145.313 199.312C145.313 200.32 145.859 200.824 146.951 200.824C148.057 200.824 148.967 200.341 149.681 199.375V196.876C148.197 196.96 147.098 197.226 146.384 197.674C145.67 198.108 145.313 198.654 145.313 199.312ZM151.424 194.524V200.11C151.424 200.852 151.767 201.272 152.453 201.37C152.187 201.916 151.746 202.189 151.13 202.189C150.248 202.189 149.765 201.622 149.681 200.488C148.869 201.622 147.777 202.189 146.405 202.189C145.537 202.189 144.823 201.951 144.263 201.475C143.703 200.999 143.423 200.341 143.423 199.501C143.423 198.465 143.941 197.632 144.977 197.002C146.027 196.358 147.595 196.008 149.681 195.952V194.692C149.681 193.824 149.527 193.187 149.219 192.781C148.911 192.361 148.421 192.151 147.749 192.151C147.091 192.151 146.594 192.291 146.258 192.571C145.922 192.837 145.754 193.145 145.754 193.495C145.754 193.831 145.852 194.104 146.048 194.314C145.754 194.538 145.425 194.65 145.061 194.65C144.711 194.65 144.424 194.552 144.2 194.356C143.976 194.16 143.864 193.88 143.864 193.516C143.864 192.858 144.242 192.298 144.998 191.836C145.754 191.374 146.685 191.143 147.791 191.143C148.897 191.143 149.779 191.444 150.437 192.046C151.095 192.634 151.424 193.46 151.424 194.524ZM163.989 194.755V200.698C163.989 201.09 164.171 201.363 164.535 201.517C164.241 201.965 163.87 202.189 163.422 202.189C162.652 202.189 162.267 201.699 162.267 200.719V194.881C162.267 193.411 161.623 192.676 160.335 192.676C159.635 192.676 158.97 192.956 158.34 193.516C157.71 194.076 157.276 194.825 157.038 195.763V200.698C157.038 201.104 157.213 201.377 157.563 201.517C157.269 201.965 156.905 202.189 156.471 202.189C155.687 202.189 155.295 201.699 155.295 200.719V192.655C155.295 192.249 155.12 191.969 154.77 191.815C155.036 191.367 155.4 191.143 155.862 191.143C156.646 191.143 157.038 191.633 157.038 192.613V193.705C157.402 192.949 157.92 192.333 158.592 191.857C159.264 191.381 160.048 191.143 160.944 191.143C161.854 191.143 162.589 191.451 163.149 192.067C163.709 192.669 163.989 193.565 163.989 194.755ZM168.688 186.67C169.052 186.67 169.346 186.775 169.57 186.985C169.808 187.181 169.927 187.461 169.927 187.825C169.927 188.175 169.773 188.497 169.465 188.791C169.171 189.071 168.835 189.211 168.457 189.211C168.079 189.211 167.771 189.099 167.533 188.875C167.295 188.651 167.176 188.357 167.176 187.993C167.176 187.629 167.337 187.321 167.659 187.069C167.995 186.803 168.338 186.67 168.688 186.67ZM169.507 192.613V200.698C169.507 201.104 169.682 201.377 170.032 201.517C169.738 201.965 169.374 202.189 168.94 202.189C168.156 202.189 167.764 201.699 167.764 200.719V192.655C167.764 192.249 167.589 191.969 167.239 191.815C167.505 191.367 167.869 191.143 168.331 191.143C169.115 191.143 169.507 191.633 169.507 192.613ZM180.966 200.929C180.966 201.643 180.105 202 178.383 202H174.162C173.714 202 173.364 201.888 173.112 201.664C172.86 201.426 172.734 201.125 172.734 200.761C172.734 200.383 172.958 199.949 173.406 199.459L179.412 192.571C177.662 192.781 176.297 192.886 175.317 192.886C173.609 192.886 172.755 192.508 172.755 191.752C172.755 191.486 172.867 191.255 173.091 191.059C173.637 191.255 174.344 191.353 175.212 191.353H179.559C179.993 191.353 180.336 191.472 180.588 191.71C180.84 191.934 180.966 192.228 180.966 192.592C180.966 192.956 180.735 193.39 180.273 193.894L174.351 200.74L178.509 200.593C179.433 200.579 180.126 200.39 180.588 200.026C180.84 200.264 180.966 200.565 180.966 200.929ZM188.879 195.532C189.453 195.49 189.74 195.161 189.74 194.545C189.74 193.915 189.558 193.397 189.194 192.991C188.844 192.571 188.347 192.361 187.703 192.361C187.059 192.361 186.471 192.669 185.939 193.285C185.407 193.901 185.078 194.755 184.952 195.847L188.879 195.532ZM184.91 196.75C184.91 198.122 185.204 199.137 185.792 199.795C186.394 200.453 187.248 200.782 188.354 200.782C189.46 200.782 190.377 200.418 191.105 199.69C191.315 199.802 191.42 199.991 191.42 200.257C191.42 200.719 191.084 201.16 190.412 201.58C189.74 201.986 188.942 202.189 188.018 202.189C186.576 202.189 185.393 201.734 184.469 200.824C183.545 199.914 183.083 198.64 183.083 197.002C183.083 195.35 183.58 193.964 184.574 192.844C185.582 191.71 186.737 191.143 188.039 191.143C189.075 191.143 189.915 191.5 190.559 192.214C191.217 192.928 191.546 193.74 191.546 194.65C191.546 195.308 191.364 195.798 191 196.12C190.65 196.428 190.076 196.596 189.278 196.624L184.91 196.75ZM200.729 193.327C200.099 192.739 199.329 192.445 198.419 192.445C197.523 192.445 196.753 192.837 196.109 193.621C195.479 194.391 195.164 195.448 195.164 196.792C195.164 198.136 195.437 199.144 195.983 199.816C196.543 200.488 197.243 200.824 198.083 200.824C199.497 200.824 200.379 200.026 200.729 198.43V193.327ZM202.493 187.489V200.698C202.493 201.104 202.668 201.377 203.018 201.517C202.724 201.965 202.353 202.189 201.905 202.189C201.121 202.189 200.729 201.699 200.729 200.719V200.383C200.099 201.587 199.091 202.189 197.705 202.189C196.529 202.189 195.5 201.72 194.618 200.782C193.736 199.83 193.295 198.521 193.295 196.855C193.295 195.175 193.771 193.803 194.723 192.739C195.675 191.675 196.823 191.143 198.167 191.143C199.119 191.143 199.973 191.381 200.729 191.857V187.531C200.729 187.111 200.554 186.831 200.204 186.691C200.47 186.257 200.834 186.04 201.296 186.04C202.094 186.04 202.493 186.523 202.493 187.489Z" fill="black"/>
<path d="M97.1484 105V74L127.148 94V124L97.1484 105Z" fill="#747474"/>
<path d="M97.1484 43.9996L127.148 23.9996L127.148 53.9996L97.1484 73.9996L97.1484 43.9996Z" fill="#C4C4C4"/>
<path d="M127.148 124V94L157.148 74V104L127.148 124Z" fill="#C4C4C4"/>
<path d="M174 76.5C174 71.8587 171.419 67.4075 166.824 64.1256C162.229 60.8437 155.998 59 149.5 59C143.002 59 136.771 60.8437 132.176 64.1256C127.581 67.4075 126.5 71.8587 126.5 76.5H128C128 72.7672 128.481 69.1873 132.176 66.5478C135.871 63.9083 140.274 62 145.5 62C150.726 62 159.738 63.9083 163.433 66.5478C167.128 69.1873 169.204 72.7672 169.204 76.5L171 73L174 76.5Z" fill="#747474"/>
<path d="M127.5 81L131.397 74.25H123.603L127.5 81Z" fill="#747474"/>
<defs>
<filter id="filter0_d" x="0" y="0" width="264" height="234" filterUnits="userSpaceOnUse" color-interpolation-filters="sRGB">
<feFlood flood-opacity="0" result="BackgroundImageFix"/>
<feColorMatrix in="SourceAlpha" type="matrix" values="0 0 0 0 0 0 0 0 0 0 0 0 0 0 0 0 0 0 127 0"/>
<feOffset dy="4"/>
<feGaussianBlur stdDeviation="2"/>
<feColorMatrix type="matrix" values="0 0 0 0 0 0 0 0 0 0 0 0 0 0 0 0 0 0 0.25 0"/>
<feBlend mode="normal" in2="BackgroundImageFix" result="effect1_dropShadow"/>
<feBlend mode="normal" in="SourceGraphic" in2="effect1_dropShadow" result="shape"/>
</filter>
</defs>
</svg>
