<svg width="64" height="64" viewBox="0 0 64 64" fill="none" xmlns="http://www.w3.org/2000/svg">
<path fill-rule="evenodd" clip-rule="evenodd" d="M32 64C49.6731 64 64 49.6731 64 32C64 14.3269 49.6731 0 32 0C14.3269 0 0 14.3269 0 32C0 49.6731 14.3269 64 32 64Z" fill="#FFF1B6"/>
<rect x="14.5449" y="14.5455" width="34.9091" height="34.9091" fill="white" fill-opacity="0.01"/>
<path fill-rule="evenodd" clip-rule="evenodd" d="M37.8183 37.6947V40.7274C37.8183 43.9407 35.2135 46.5456 32.0002 46.5456C28.7869 46.5456 26.182 43.9407 26.182 40.7274V37.6947C26.182 37.4106 26.0814 37.1007 25.8438 36.6928C25.6911 36.4306 25.4913 36.1427 25.19 35.744L25.0885 35.6116L25.0885 35.6115C24.8872 35.3492 24.4479 34.7767 24.2857 34.5576C22.6423 32.3379 21.8184 30.3563 21.8184 27.6365C21.8184 22.0132 26.3769 17.4547 32.0002 17.4547C37.6234 17.4547 42.182 22.0132 42.182 27.6365C42.182 30.4158 41.3468 32.4726 39.7174 34.6881C39.5447 34.9229 39.1089 35.4892 38.8509 35.8246C38.7499 35.9557 38.6762 36.0516 38.656 36.0784C38.3268 36.5165 38.1222 36.8271 37.9892 37.0967C37.8688 37.3407 37.8183 37.5293 37.8183 37.6947ZM34.9719 37.003C35.046 36.6006 35.184 36.2057 35.3794 35.8096C35.609 35.3442 35.901 34.9008 36.3297 34.3304C36.3591 34.2913 36.4537 34.1683 36.576 34.0093L36.5765 34.0087L36.5767 34.0084C36.8387 33.6678 37.2269 33.163 37.373 32.9644C38.6655 31.207 39.272 29.7134 39.272 27.6364C39.272 23.6198 36.0159 20.3637 31.9993 20.3637C27.9827 20.3637 24.7266 23.6198 24.7266 27.6364C24.7266 29.6416 25.3181 31.0642 26.6228 32.8265C26.7629 33.0157 27.1586 33.5316 27.3722 33.8101L27.3731 33.8112C27.4452 33.9053 27.4964 33.972 27.5098 33.9898C27.8753 34.4733 28.1338 34.846 28.3566 35.2285C28.7035 35.8241 28.9339 36.4046 29.0337 37.0065C29.9403 37.5508 30.9203 37.8182 31.9998 37.8182C33.0817 37.8182 34.0636 37.5497 34.9719 37.003ZM34.9084 40.7273V40.2365C33.9886 40.5628 33.0169 40.7273 31.9998 40.7273C30.9824 40.7273 30.0103 40.5627 29.0902 40.2361V40.7273C29.0902 42.334 30.3926 43.6364 31.9993 43.6364C33.6059 43.6364 34.9084 42.334 34.9084 40.7273Z" fill="#F5A623"/>
<mask id="mask0" mask-type="alpha" maskUnits="userSpaceOnUse" x="21" y="17" width="22" height="30">
<path fill-rule="evenodd" clip-rule="evenodd" d="M37.8183 37.6947V40.7274C37.8183 43.9407 35.2135 46.5456 32.0002 46.5456C28.7869 46.5456 26.182 43.9407 26.182 40.7274V37.6947C26.182 37.4106 26.0814 37.1007 25.8438 36.6928C25.6911 36.4306 25.4913 36.1427 25.19 35.744L25.0885 35.6116L25.0885 35.6115C24.8872 35.3492 24.4479 34.7767 24.2857 34.5576C22.6423 32.3379 21.8184 30.3563 21.8184 27.6365C21.8184 22.0132 26.3769 17.4547 32.0002 17.4547C37.6234 17.4547 42.182 22.0132 42.182 27.6365C42.182 30.4158 41.3468 32.4726 39.7174 34.6881C39.5447 34.9229 39.1089 35.4892 38.8509 35.8246C38.7499 35.9557 38.6762 36.0516 38.656 36.0784C38.3268 36.5165 38.1222 36.8271 37.9892 37.0967C37.8688 37.3407 37.8183 37.5293 37.8183 37.6947ZM34.9719 37.003C35.046 36.6006 35.184 36.2057 35.3794 35.8096C35.609 35.3442 35.901 34.9008 36.3297 34.3304C36.3591 34.2913 36.4537 34.1683 36.576 34.0093L36.5765 34.0087L36.5767 34.0084C36.8387 33.6678 37.2269 33.163 37.373 32.9644C38.6655 31.207 39.272 29.7134 39.272 27.6364C39.272 23.6198 36.0159 20.3637 31.9993 20.3637C27.9827 20.3637 24.7266 23.6198 24.7266 27.6364C24.7266 29.6416 25.3181 31.0642 26.6228 32.8265C26.7629 33.0157 27.1586 33.5316 27.3722 33.8101L27.3731 33.8112C27.4452 33.9053 27.4964 33.972 27.5098 33.9898C27.8753 34.4733 28.1338 34.846 28.3566 35.2285C28.7035 35.8241 28.9339 36.4046 29.0337 37.0065C29.9403 37.5508 30.9203 37.8182 31.9998 37.8182C33.0817 37.8182 34.0636 37.5497 34.9719 37.003ZM34.9084 40.7273V40.2365C33.9886 40.5628 33.0169 40.7273 31.9998 40.7273C30.9824 40.7273 30.0103 40.5627 29.0902 40.2361V40.7273C29.0902 42.334 30.3926 43.6364 31.9993 43.6364C33.6059 43.6364 34.9084 42.334 34.9084 40.7273Z" fill="white"/>
</mask>
<g mask="url(#mask0)">
</g>
</svg>
