<svg width="56" height="56" viewBox="0 0 56 56" fill="none" xmlns="http://www.w3.org/2000/svg">
<circle cx="28" cy="28" r="28" fill="white"/>
<path d="M28.2168 25.1518C28.2168 23.9633 28.4462 22.7864 28.8919 21.6884C29.3377 20.5904 29.991 19.5926 30.8146 18.7522C31.6382 17.9118 32.6159 17.2452 33.692 16.7904C34.7681 16.3355 35.9214 16.1014 37.0862 16.1014C38.2509 16.1014 39.4043 16.3355 40.4804 16.7904C41.5564 17.2452 42.5342 17.9118 43.3578 18.7522C44.1814 19.5927 44.8347 20.5904 45.2804 21.6884C45.7262 22.7865 45.9556 23.9633 45.9556 25.1518H41.5209C41.5209 24.5576 41.4062 23.9691 41.1833 23.4201C40.9605 22.8711 40.6338 22.3722 40.222 21.952C39.8102 21.5318 39.3213 21.1985 38.7833 20.9711C38.2452 20.7437 37.6686 20.6266 37.0862 20.6266C36.5038 20.6266 35.9271 20.7437 35.3891 20.9711C34.8511 21.1985 34.3622 21.5318 33.9504 21.952C33.5386 22.3722 33.2119 22.8711 32.9891 23.4201C32.7662 23.9691 32.6515 24.5576 32.6515 25.1518H28.2168Z" fill="#1D976C"/>
<path d="M28.2168 24.7898H32.6515V33.8402H28.2168V24.7898Z" fill="#1D976C"/>
<path d="M41.5209 25.1518H45.9556V33.8402H41.5209V25.1518Z" fill="#1D976C"/>
<rect x="28.2168" y="37.388" width="17.7388" height="3.54776" fill="#FF4D82"/>
<rect x="20.2344" y="16.1014" width="4.4347" height="3.54776" fill="#1D976C"/>
<path fill-rule="evenodd" clip-rule="evenodd" d="M6.93164 32.2474H6.93874C6.98052 33.3124 7.20636 34.3624 7.60678 35.3488C8.05251 36.4469 8.70583 37.4446 9.52943 38.285C10.353 39.1254 11.3308 39.7921 12.4069 40.2469C13.483 40.7017 14.6363 40.9358 15.801 40.9358C16.9658 40.9358 18.1191 40.7017 19.1952 40.2469C20.2713 39.7921 21.249 39.1254 22.0726 38.285C22.8962 37.4446 23.5496 36.4469 23.9953 35.3488C24.441 34.2508 24.6704 33.0739 24.6704 31.8854V23.197H20.2357V31.8854C20.2357 32.4797 20.121 33.0681 19.8982 33.6171C19.6753 34.1662 19.3486 34.665 18.9368 35.0852C18.525 35.5054 18.0362 35.8387 17.4981 36.0661C16.9601 36.2936 16.3834 36.4106 15.801 36.4106C15.2187 36.4106 14.642 36.2936 14.104 36.0661C13.5659 35.8387 13.077 35.5054 12.6652 35.0852C12.2534 34.665 11.9268 34.1662 11.7039 33.6171C11.481 33.0681 11.3663 32.4797 11.3663 31.8854V30.2926H6.93164V31.8854V32.2474ZM6.93164 23.1971V23.197H11.3663V23.1971H6.93164Z" fill="#1D976C"/>
</svg>
